<svg id="Layer_1" data-name="Layer 1" xmlns="http://www.w3.org/2000/svg" viewBox="0 0 532.47 730.46"><defs><style>.cls-1{isolation:isolate;}.cls-2{fill:#010101;}</style></defs><path d="M428.36,792.48H65.51c-1-22.17-1.91-44.34-3.07-66.51-.28-5.45-2.27-10.92-1.87-16.27.82-10.88,2.44-21.74,4.3-32.51,1.32-7.71,1.08-14.7-2-22.23a50.36,50.36,0,0,1-3.56-20.91c.49-10.78-.36-20.95-4.43-31-6.33-15.66-13.47-31.19-17.61-47.46-3.2-12.61-11-25-6.28-39,.07-.22-.43-.63-.77-1.1l-3.73,2.24c-1.7-16.9-11.07-31.77-9.3-48.73.94-9-7-18.56,1-25.44-1.66-3.15-3.25-5.06-3.69-7.2-1.77-8.53-1.69-17.81-5.13-25.54C5.66,402.46,6.11,394.3,6.29,386c.25-11.69,4.36-22.23,15-28.34a109.19,109.19,0,0,1,23.09-10c15.78-4.7,31.89-8.06,45.76-17.87,4.85-3.43,10.77-5.61,16.49-7.42,4.14-1.32,8.8-.91,13.18-1.57,23.5-3.5,39-27.22,30.81-50.49-7.37-20.84-13-42.37-15.29-64.69-1.11-10.86-1-19.75,10.12-25a10.47,10.47,0,0,0,2.35-2.1c6.93-6.65,15.25-8.4,24.57-7.63a10.9,10.9,0,0,0,7.06-2.53,123.45,123.45,0,0,0,14.73-13.82c5.73-6.65,12.88-13.23,15.54-21.15,5.77-17.19.09-32.83-11-46.9-3.11-3.94-5.48-7.12-10.89-5.78-.16,0-.49-.62-1.21-1.59,1.07-1.22,2-3.11,3.47-3.78a158.23,158.23,0,0,1,16.24-6.54c22-7.24,44.33-2.73,66.54-1.11a27.33,27.33,0,0,1,5.88,1.6,10.22,10.22,0,0,1-4.51.68c-20.31-.37-32.66,7.46-36.28,27.32-2,10.89-4.57,22.4-1.62,34.26,3.45,13.86,4.43,28.33,7.37,42.34,1.39,6.62,3.05,13.55,8.76,18.54,4.7,4.11,5.41,9.8,4.42,15.77a89.83,89.83,0,0,0-1.34,10.07c-.34,6.18,4.83,9.27,10.68,7.34a27.77,27.77,0,0,1,10.77-.83c3,.24,5.92,1.62,9.37,2.64-.73-3.39-1.09-5.87-1.82-8.23s-1.22-5.32-2.89-6.77c-4.7-4.06-3.21-6.11,1.63-7.9,2-.72,3.84-1.67,5.69-2.49,1.57,1.2,3.75,3.54,4.32,3.2,4.76-2.87,8.48.62,12.65,1.43,7.22,1.41,11-2.13,11.22-9.51,0-1.36,1.63-2.75,2.69-4s2.65-2,3.53-3.32c3.09-4.62,6-9.38,8.94-14.1,4.51,8.18-11.92,65.82-21.43,74.44.11-1.11.18-1.91.26-2.71.23-2.4.47-4.8.7-7.2-2.52.55-5.28.62-7.53,1.74-9.05,4.5-17.55,6.16-25.38-2.46-.95-1-3.84-1.39-5.17-.73s-2.29,3-2.39,4.62c-.12,2.24.13,4.93,1.29,6.74,5.63,8.75,11.61,17.26,17.53,26l8.17-4.71c5.16,4.93,3.27,8.72-1.7,10.3-5.7,1.81-11.88,2.06-17.83,3.11-2.83.51-7.39.5-8.1,2.1a189.54,189.54,0,0,0-9,25c-1.4,4.86-1.39,10.13-2.33,17.84-6-7.36-8.21-3.57-10.46-.22-2.95,4.39-5.49,9.1-8.82,13.17a46.88,46.88,0,0,1-10.1,9.33c-4.53,3-8.61-.27-9.57-5.65-.57-3.24-2.74-7.76-5.32-8.75-5.72-2.19-11.91-5.82-18.46-1.73-.15.1-.68-.41-1.31-.8.38-1.31.79-2.69,1.41-4.76-5.44,1.34-5.12,4.19-3,7.13,6.46,9.14,13,18.25,19.77,27.13,1.93,2.52,4.9,4.25,7.45,6.27,3.8,3,7.84,5.71,11.41,9,3.2,2.89,5.89,6.34,8.47,9.17l-2.12.62.15,1.6h15.44c-2.14,2.84-8.84,1.1-7.37,7.53.8,3.46,1.38,7,2,10.47l1.73-.31c.19-1.36.38-2.72.52-3.79.55,2.64.36,6,1.85,8.21,5.31,7.83,11.19,15.26,16.86,22.84,4.51-3,4.7-3,4-8.16-1.44-10.26-3.37-20.46-4.59-30.75-.77-6.53-4.57-10.52-10-14.94-.6,4.63-1.1,8.46-1.77,13.57l-3.51-4.63c-3.25-7.7,1.59-15.07,1.53-21.74-3.16-1.27-5.36-2.51-7.72-3a49.41,49.41,0,0,0-7.78-.47c.44-6.15,4.71-6.86,9.42-4.61a53.7,53.7,0,0,1,12.89,8.62c3.3,3,5.54,7.18,9.45,12.48-1.16-20.77-2.2-39.63-3.24-58.23,11,5,21.82,10.77,33.2,15,13,4.8,26.77,7.62,39.81,12.4q32,11.73,63.45,25.16c3.82,1.63,7.71,6.34,8.85,10.39,3.51,12.48,5.41,25.41,8.52,38,1.86,7.52,5,14.71,7.26,22.16,3.54,11.83,6.82,23.74,10.14,35.63a81.38,81.38,0,0,1,2.6,11c.58,4.43,2.25,7.79,6.78,8.9,5.19,1.27,7.25,4.82,8.83,9.65,2.39,7.35,4.58,15.15,8.8,21.45,7,10.45,15.15,19.54,16.84,33.19,1.23,9.92,6.12,19.52,10.21,28.9,6.28,14.38,9.83,29.16,9.21,44.91-.06,1.64.81,3.3.87,5,.31,9.16.28,18.69-5.91,25.93-17.43,20.39-39.85,29.73-66.68,28-9.08-.58-12.59,3.82-11.28,12.68,1.91,12.9,3.12,25.91,4.32,38.91.84,9,1,18.16,1.77,27.22C426.57,783.41,427.61,787.93,428.36,792.48Zm-72-239.26c4.71,15,8.9,28.35,13.08,41.65l6.31-.85.62,5.09c5.11.49,10.57-.39,14.32,1.75,4.56,2.6,7.11,1.21,10-1.43a16.48,16.48,0,0,0,3.47-20.19c-4-7.56-9.11-13.86-18.1-16.32-9.82-2.69-19.36-6.28-29.69-9.7ZM136.19,506.49c-.58,12.22,4.44,20.12,9.95,27.67a9.68,9.68,0,0,0,6.27,3.35c5.34.53,10,1.57,12.15,8.35a7.75,7.75,0,0,0,2.44-3.19c.28-.53.53-1.07,1-2C157.52,529.83,150.52,515.62,136.19,506.49ZM297.34,227.73l1,2.27c3.88-.54,8-.46,11.53-1.92,1.46-.61,1.54-4.52,2.25-6.93-2.17-.42-5-1.9-6.37-1C302.57,222,300.09,225.12,297.34,227.73ZM24.55,479l-3.16.43,1.68,11.36,3-.42Q25.31,484.63,24.55,479Z" transform="translate(-6.17 -62.7)"/><path d="M258.94,143.92l-7.23,3.6a22.86,22.86,0,0,1,14-16.53c7.91-3.44,15.87-1.36,22.6,3.72,4.34,3.28,6.82,7.89,5,14.24-7.44-1.77-15.33-.42-21.12-6.84-.77-.86-4.83-.46-5.46.55C263.47,147.84,263.7,148,258.94,143.92Z" transform="translate(-6.17 -62.7)"/><path d="M321.88,148.42c-8-2.9-6.85,7.82-13.34,7.27-3.82-5.08.39-9,3-12.78,3.79-5.42,12.83-8.21,16.6-5.58,3.24,2.26,5.18,14.27,2.25,18.33-1.7,2.35-1.33,7.89-7.08,5.92C316.19,159.11,315.52,155.12,321.88,148.42Z" transform="translate(-6.17 -62.7)"/><path d="M268.7,159.68l-6.22-6.39c2.54-1.71,4.91-4,7.72-4.83,1-.32,4.69,3.43,4.4,4.07C273.55,154.89,271.33,156.72,268.7,159.68Z" transform="translate(-6.17 -62.7)"/><g id="Layer_2" data-name="Layer 2"><g id="Layer_1-2" data-name="Layer 1-2"><text class="cls-1" x="-6.17" y="-62.7"/></g></g><rect x="390.44" y="704.53" width="55.53" height="25.24"/><path class="cls-2" d="M430,793.16c-2.9-.54-5.83-1-8.71-1.62-19.18-4.22-33.6-14.49-41.48-33-4-9.33-4.91-19.13-3.8-29.11a443.07,443.07,0,0,1,14-69.67c3.31-11.91,8.19-23.15,16-32.89,11-13.7,25.51-21.9,42.34-26.08,16.23-4,32.33-3.55,47.94,2.84,21.2,8.67,34.07,28.61,33.62,51.76-.23,11.55-2.17,22.91-4.57,34.15-3.06,14.36-6.28,28.69-10,42.89a84.65,84.65,0,0,1-16,32.45c-11.5,14.08-26.55,22.23-44,26.22-3.49.8-7.1,1.12-10.66,1.68a2.22,2.22,0,0,0-.6.36Zm-7.81-60.65c0,1.12.07,2.73.21,4.33.78,8.71,6.47,15.16,15.05,16.62,9.63,1.64,17.54-1.94,24.11-8.82,4.76-5,7-11.29,8.93-17.71a363.21,363.21,0,0,0,10.72-48.44,156.49,156.49,0,0,0,2-22.33c.1-9.9-6.63-17.2-16.14-18.36-7.17-.87-13.56,1.27-19.29,5.59s-9.06,10.4-11.34,17.08c-4.29,12.61-7,25.61-9.61,38.63C424.62,710,422.67,720.9,422.16,732.51Z" transform="translate(-6.17 -62.7)"/><path class="cls-2" d="M371.84,522.43c.65-2.61,1.41-5.2,2-7.83q10.4-50.13,20.74-100.26,8.29-40.12,16.58-80.25c.11-.52.24-1,.38-1.6H538.64c-2.68,13.1-5.35,26.13-8,39.27H449.43c-2.48,12.06-4.95,24-7.45,36.12h70.09c-2.7,13.17-5.35,26.14-8,39.28H434c-2.59,12.52-5.15,24.92-7.75,37.52H509c-2.7,13.22-5.37,26.23-8,39.35H371.84Z" transform="translate(-6.17 -62.7)"/><path class="cls-2" d="M473.52,196.65h47.31c-.92,2.4-1.72,4.63-2.61,6.83-5.38,13.3-12.77,25.27-23.49,35-14.17,12.77-31,18.68-49.87,19.25-12.72.39-25.09-1.39-36.42-7.53-20.46-11.1-29.93-28.66-29.07-51.74.57-15.29,4-30.18,7.12-45.1,2.59-12.41,5.22-24.82,9.38-36.84C404.8,90.62,422.21,73.54,448.5,66a80,80,0,0,1,44.3-.32c21.35,6,34.11,20.26,38.93,41.71,1.19,5.32,1.5,10.83,2.24,16.45H487.72c-.4-2.64-.65-5.3-1.23-7.89-1.93-8.58-7.87-13.36-16.62-13.73-12.86-.54-21.63,5.54-27.06,16.82-4.29,8.9-6.76,18.43-8.75,28-2.77,13.4-5.3,26.87-7.44,40.38a55.78,55.78,0,0,0-.18,16c1.2,8.92,8,14.42,16.95,15,12.52.76,21.07-5.29,27.09-15.72C471.58,200.74,472.48,198.73,473.52,196.65Z" transform="translate(-6.17 -62.7)"/></svg>