<svg xmlns="http://www.w3.org/2000/svg" viewBox="0 0 333.81 202.92"><defs><style>.cls-1{font-size:171px;font-family:Montserrat-BlackItalic, Montserrat;font-weight:800;font-style:italic;}.cls-2{fill:none;}</style></defs><g id="Layer_2" data-name="Layer 2"><g id="Layer_1-2" data-name="Layer 1"><text class="cls-1" transform="translate(4.24 144.74) rotate(5.26)">C</text><text class="cls-1" transform="matrix(-1, 0.09, 0.09, 1, 329.57, 144.74)">C</text><path class="cls-2" d="M180.44,109.85a27,27,0,0,0-27.19,0,26.28,26.28,0,0,0-9.66,10.43A33.3,33.3,0,0,0,140,136.1a33.3,33.3,0,0,0,3.59,15.82,26.28,26.28,0,0,0,9.66,10.43,27,27,0,0,0,27.19,0,26.35,26.35,0,0,0,9.66-10.43,33.3,33.3,0,0,0,3.59-15.82,33.3,33.3,0,0,0-3.59-15.82A26.35,26.35,0,0,0,180.44,109.85Z"/><path d="M225.67,103.87a60.36,60.36,0,0,0-24.11-22.32q-15.39-8-34.72-8t-34.71,8A60,60,0,0,0,99.3,136.1a60,60,0,0,0,32.83,54.55q15.39,8,34.71,8t34.72-8a60,60,0,0,0,32.83-54.55A60.62,60.62,0,0,0,225.67,103.87Zm-35.57,48a26.35,26.35,0,0,1-9.66,10.43,27,27,0,0,1-27.19,0,26.28,26.28,0,0,1-9.66-10.43A33.3,33.3,0,0,1,140,136.1a33.3,33.3,0,0,1,3.59-15.82,26.28,26.28,0,0,1,9.66-10.43,27,27,0,0,1,27.19,0,26.35,26.35,0,0,1,9.66,10.43,33.3,33.3,0,0,1,3.59,15.82A33.3,33.3,0,0,1,190.1,151.92Z"/></g></g></svg>