<svg xmlns="http://www.w3.org/2000/svg" viewBox="0 0 521.32 316.9"><defs><style>.cls-1{font-size:267.05px;font-family:Montserrat-BlackItalic, Montserrat;font-weight:800;font-style:italic;}.cls-1,.cls-2{fill:#fff;}</style></defs><g id="Layer_2" data-name="Layer 2"><g id="Layer_1-2" data-name="Layer 1"><text class="cls-1" transform="translate(6.61 226.05) rotate(5.26)">C</text><text class="cls-1" transform="matrix(-1, 0.09, 0.09, 1, 514.7, 226.03)">C</text><path class="cls-2" d="M352.54,162.33a94.27,94.27,0,0,0-37.65-34.85q-24-12.56-54.21-12.56t-54.21,12.56a94.24,94.24,0,0,0-37.66,34.85q-13.62,22.29-13.62,50.33T168.81,263a94.17,94.17,0,0,0,37.66,34.85q24,12.56,54.21,12.55t54.21-12.55A94.2,94.2,0,0,0,352.54,263q13.62-22.29,13.62-50.34T352.54,162.33Zm-55.55,75a41.13,41.13,0,0,1-15.08,16.29,42.13,42.13,0,0,1-42.46,0,41.09,41.09,0,0,1-15.09-16.29q-5.61-10.55-5.61-24.71t5.61-24.7a41.09,41.09,0,0,1,15.09-16.29,42.13,42.13,0,0,1,42.46,0A41.13,41.13,0,0,1,297,188q5.61,10.56,5.61,24.7T297,237.37Z"/></g></g></svg>