<svg xmlns="http://www.w3.org/2000/svg" viewBox="0 0 463.34 327.24"><defs><style>.cls-1{font-size:237.34px;font-family:Montserrat-BlackItalic, Montserrat;font-weight:800;font-style:italic;}.cls-1,.cls-2,.cls-3{fill:#fff;}.cls-3{font-size:26px;font-family:Montserrat-Bold, Montserrat;font-weight:700;}.cls-4{letter-spacing:-0.02em;}.cls-5{letter-spacing:-0.01em;}.cls-6{letter-spacing:-0.04em;}</style></defs><g id="Layer_2" data-name="Layer 2"><g id="Layer_1-2" data-name="Layer 1"><text class="cls-1" transform="translate(5.88 200.9) rotate(5.26)">C</text><text class="cls-1" transform="matrix(-1, 0.09, 0.09, 1, 457.46, 200.89)">C</text><path class="cls-2" d="M313.28,144.22a83.74,83.74,0,0,0-33.46-31q-21.36-11.16-48.18-11.16t-48.18,11.16a83.7,83.7,0,0,0-33.47,31Q137.89,164,137.88,189T150,233.7a83.7,83.7,0,0,0,33.47,31q21.36,11.16,48.18,11.16t48.18-11.16a83.74,83.74,0,0,0,33.46-31q12.11-19.81,12.11-44.74T313.28,144.22Zm-49.37,66.69a36.47,36.47,0,0,1-13.4,14.48,37.46,37.46,0,0,1-37.74,0,36.43,36.43,0,0,1-13.41-14.48q-5-9.37-5-21.95t5-22a36.53,36.53,0,0,1,13.41-14.47,37.4,37.4,0,0,1,37.74,0A36.58,36.58,0,0,1,263.91,167q5,9.39,5,22T263.91,210.91Z"/><text class="cls-3" transform="translate(104.4 320.32)"><tspan class="cls-4">C</tspan><tspan x="18.67" y="0">OMMUNI</tspan><tspan class="cls-5" x="140.29" y="0">C</tspan><tspan class="cls-6" x="158.99" y="0">A</tspan><tspan x="177.99" y="0">TION</tspan></text></g></g></svg>